<svg xmlns="http://www.w3.org/2000/svg" viewBox="0 0 185 32" width="185" height="32">
  <svg width="32" height="32" viewBox="0 0 32 32">
    <path d="M8,0 L16,0 L16,32 L8,32 C3.6,32 0,28.4 0,24 L0,8 C0,3.6 3.6,0 8,0 Z" fill="#18181b"/>
    <g transform="matrix(0.020576,0,0,-0.020576,1.8272,24.0103)"><path d="M303-10Q229-10 173.5 16Q118 42 87.5 90.5Q57 139 57 206H180Q180 157 213.5 128Q247 99 303 99Q357 99 388.5 127.5Q420 156 420 204Q420 240 399.5 267.5Q379 295 341 305L243 330Q164 350 118 405Q72 460 72 536Q72 629 133 684.5Q194 740 296 740Q365 740 416.5 715Q468 690 496 644.5Q524 599 524 538H402Q402 580 373 606Q344 632 296 632Q249 632 221.5 606.5Q194 581 194 540Q194 506 213.5 484Q233 462 268 452L369 427Q450 407 496.5 347Q543 287 543 204Q543 139 513.5 91Q484 43 430 16.5Q376-10 303-10Z" fill="#fff"/></g>
    <path d="M16,0 L24,0 C28.4,0 32,3.6 32,8 L32,24 C32,28.4 28.4,32 24,32 L16,32 Z" fill="#52525b"/>
    <g transform="matrix(0.020576,0,0,-0.020576,17.3626,24.0103)"><path d="M308-10Q237-10 185 16.5Q133 43 104.5 91.5Q76 140 76 206V524Q76 590 104.5 638.5Q133 687 185 713.5Q237 740 308 740Q378 740 430 713.5Q482 687 511 638.5Q540 590 540 524H414Q414 575 386.5 602.5Q359 630 308 630Q257 630 229 602.5Q201 575 201 524V206Q201 155 229 127.5Q257 100 308 100Q359 100 386.5 127.5Q414 155 414 206H540Q540 140 511 91.5Q482 43 430 16.5Q378-10 308-10Z" fill="#fff"/></g>
  </svg>
  <text x="40" y="14" font-family="Inter, -apple-system, sans-serif" font-size="15" font-weight="700" fill="#18181b" letter-spacing="-0.3">ShaChain</text>
  <text x="40" y="27" font-family="Inter, -apple-system, sans-serif" font-size="8" font-weight="500" fill="#a1a1aa" letter-spacing="1.2">NETWORK · TECH</text>
</svg>
