<svg xmlns="http://www.w3.org/2000/svg" width="128" height="128" viewBox="0 0 128 128">
  <rect width="128" height="128" rx="24" ry="24" fill="#8b5cf6"/>
  <g transform="translate(24, 24) scale(3.333333)"
     fill="none" stroke="#ffffff" stroke-width="1.0500"
     stroke-linecap="round" stroke-linejoin="round">
      <path d="M12 22a1 1 0 0 1 0-20 10 9 0 0 1 10 9 5 5 0 0 1-5 5h-2.25a1.75 1.75 0 0 0-1.4 2.8l.3.4a1.75 1.75 0 0 1-1.4 2.8z"/>
      <circle cx="13.5" cy="6.5" r=".5" fill="currentColor"/>
      <circle cx="17.5" cy="10.5" r=".5" fill="currentColor"/>
      <circle cx="6.5" cy="12.5" r=".5" fill="currentColor"/>
      <circle cx="8.5" cy="7.5" r=".5" fill="currentColor"/>
  </g>
</svg>
